<?xml version="1.0" encoding="UTF-8"?>
<!DOCTYPE svg PUBLIC "-//W3C//DTD SVG 1.1//EN" "http://www.w3.org/Graphics/SVG/1.1/DTD/svg11.dtd">
<!-- Creator: CorelDRAW 2019 (64-Bit) -->
<svg xmlns="http://www.w3.org/2000/svg" xml:space="preserve" width="210mm" height="210mm" version="1.1" style="shape-rendering:geometricPrecision; text-rendering:geometricPrecision; image-rendering:optimizeQuality; fill-rule:evenodd; clip-rule:evenodd"
viewBox="0 0 21000 21000"
 xmlns:xlink="http://www.w3.org/1999/xlink">
 <defs>
  <style type="text/css">
   <![CDATA[
    .fil1 {fill:#1565C0}
    .fil0 {fill:#F4F5F5}
   ]]>
  </style>
 </defs>
 <g id="Слой_x0020_1">
  <metadata id="CorelCorpID_0Corel-Layer"/>
  <circle class="fil0" cx="10492.87" cy="10507.13" r="10464"/>
  <g id="charity.svg">
   <g>
    <g>
     <path class="fil1" d="M13934.18 5153.87c-297.81,-280.29 -678.93,-414.88 -1063.05,-414.88 -432.4,0 -869.07,170.48 -1194.65,496.49l-139.71 139.71 -139.72 -140.14c-325.58,-325.58 -762.25,-496.06 -1194.65,-496.06 -384.11,0 -765.24,134.59 -1063.05,414.88 -655,616.55 -666.54,1647.98 -35.04,2279.48l2432.45 2432.45 2432.45 -2432.45c631.51,-631.5 619.97,-1662.93 -35.03,-2279.48z"/>
    </g>
   </g>
   <g>
    <g>
     <path class="fil1" d="M16321.76 11104.46c-373.86,-253.37 -814.38,-181.59 -1204.48,43.58 -390.09,225.17 -2629.84,2140.19 -2629.84,2140.19l-2204.72 0.43c-102.54,0 -213.63,-115.37 -213.63,-217.48 0,-120.06 104.68,-213.64 213.63,-213.64l1348.9 0c472.14,0 1000.67,-307.63 1000.67,-854.54 0,-581.08 -528.53,-854.53 -1000.67,-854.53 -819.08,0 -978.44,3.42 -978.44,3.42 -328.15,0 -660.99,-19.66 -917.35,-156.81 -341.82,-175.18 -735.76,-274.31 -1156.2,-274.31 -705.85,0 -1337.78,281.57 -1771.03,725.5l-2300.85 2265.38 2563.62 2563.62 854.54 -854.54 4326.96 0c430.69,0 846.42,-158.09 1168.16,-443.93l2929.79 -3286.56c179.02,-158.94 168.77,-451.2 -29.06,-585.78z"/>
    </g>
   </g>
   <g>
   </g>
   <g>
   </g>
   <g>
   </g>
   <g>
   </g>
   <g>
   </g>
   <g>
   </g>
   <g>
   </g>
   <g>
   </g>
   <g>
   </g>
   <g>
   </g>
   <g>
   </g>
   <g>
   </g>
   <g>
   </g>
   <g>
   </g>
   <g>
   </g>
  </g>
 </g>
</svg>
