<?xml version="1.0" encoding="UTF-8"?>
<!DOCTYPE svg PUBLIC "-//W3C//DTD SVG 1.1//EN" "http://www.w3.org/Graphics/SVG/1.1/DTD/svg11.dtd">
<!-- Creator: CorelDRAW 2019 (64-Bit) -->
<svg xmlns="http://www.w3.org/2000/svg" xml:space="preserve" width="210mm" height="210mm" version="1.1" style="shape-rendering:geometricPrecision; text-rendering:geometricPrecision; image-rendering:optimizeQuality; fill-rule:evenodd; clip-rule:evenodd"
viewBox="0 0 21000 21000"
 xmlns:xlink="http://www.w3.org/1999/xlink">
 <defs>
  <style type="text/css">
   <![CDATA[
    .fil1 {fill:#1565C0}
    .fil0 {fill:#F4F5F5}
   ]]>
  </style>
 </defs>
 <g id="Слой_x0020_1">
  <metadata id="CorelCorpID_0Corel-Layer"/>
  <circle class="fil0" cx="10492.87" cy="10507.13" r="10464"/>
  <g id="medical-kit.svg">
   <g>
    <g>
     <path class="fil1" d="M5671.11 7916.18c-255.61,255.63 -383.39,561.59 -383.39,917.84l0 4833.33c0,356.32 127.78,662.29 383.39,917.89 255.63,255.6 561.59,383.4 917.89,383.4l185.9 0.01 0 -7435.93 -185.9 0c-356.38,0 -662.33,127.87 -917.89,383.46z"/>
     <path class="fil1" d="M12723.61 6603.27c0,-154.92 -54.18,-286.57 -162.66,-395.02 -108.35,-108.45 -240.1,-162.64 -394.96,-162.64l-3346.18 0c-154.88,0 -286.55,54.19 -395.02,162.64 -108.45,108.38 -162.66,240.07 -162.66,395.02l0 929.45 -929.49 0 0 7435.93 6320.42 0 0 -7435.93 -929.45 0 0 -929.45zm-3717.9 185.89l2974.37 0 0 743.56 -2974.37 0 0 -743.56zm3717.9 5019.23c0,54.32 -17.39,98.74 -52.23,133.7 -34.81,34.73 -79.36,52.21 -133.54,52.21l-1301.28 0 0 1301.28c0,54.16 -17.54,98.75 -52.36,133.54 -34.67,34.82 -79.26,52.24 -133.5,52.24l-1115.42 -0.01c-54.27,0 -98.77,-17.42 -133.62,-52.23 -34.82,-34.82 -52.26,-79.38 -52.26,-133.55l0 -1301.28 -1301.27 0.01c-54.29,0 -98.77,-17.48 -133.62,-52.21 -34.88,-34.97 -52.29,-79.37 -52.29,-133.7l0 -1115.34c0,-54.33 17.41,-98.87 52.29,-133.71 34.78,-34.78 79.33,-52.17 133.52,-52.17l1301.27 0 0 -1301.32c0,-54.25 17.42,-98.74 52.3,-133.62 34.85,-34.85 79.33,-52.26 133.62,-52.26l1115.41 0c54.22,0 98.79,17.4 133.54,52.26 34.82,34.88 52.36,79.37 52.36,133.62l0 1301.3 1301.27 0c54.18,0 98.74,17.39 133.54,52.17 34.75,34.83 52.15,79.37 52.15,133.7l0 1115.34 0.12 0 0 0.03z"/>
     <path class="fil1" d="M15314.63 7916.18c-255.63,-255.6 -561.61,-383.46 -917.89,-383.46l-185.92 0 0 7435.93 185.92 0c356.3,0 662.27,-127.78 917.89,-383.4 255.54,-255.61 383.39,-561.59 383.39,-917.89l0 -4833.33c-0.02,-356.26 -127.86,-662.22 -383.39,-917.85z"/>
    </g>
   </g>
   <g>
   </g>
   <g>
   </g>
   <g>
   </g>
   <g>
   </g>
   <g>
   </g>
   <g>
   </g>
   <g>
   </g>
   <g>
   </g>
   <g>
   </g>
   <g>
   </g>
   <g>
   </g>
   <g>
   </g>
   <g>
   </g>
   <g>
   </g>
   <g>
   </g>
  </g>
 </g>
</svg>
