<?xml version="1.0" encoding="UTF-8"?>
<!DOCTYPE svg PUBLIC "-//W3C//DTD SVG 1.1//EN" "http://www.w3.org/Graphics/SVG/1.1/DTD/svg11.dtd">
<!-- Creator: CorelDRAW 2019 (64-Bit) -->
<svg xmlns="http://www.w3.org/2000/svg" xml:space="preserve" width="210mm" height="210mm" version="1.1" style="shape-rendering:geometricPrecision; text-rendering:geometricPrecision; image-rendering:optimizeQuality; fill-rule:evenodd; clip-rule:evenodd"
viewBox="0 0 21000 21000"
 xmlns:xlink="http://www.w3.org/1999/xlink">
 <defs>
  <style type="text/css">
   <![CDATA[
    .fil1 {fill:#1565C0}
    .fil0 {fill:#F4F5F5}
   ]]>
  </style>
 </defs>
 <g id="Слой_x0020_1">
  <metadata id="CorelCorpID_0Corel-Layer"/>
  <circle class="fil0" cx="10492.87" cy="10507.13" r="10464"/>
  <g id="pills.svg">
   <g>
    <g>
     <path class="fil1" d="M11674 5023.8l-4390.12 0c-516.28,0 -936.27,419.99 -936.27,936.28l0 665.8c0,172.5 139.58,312.09 312.09,312.09l5638.48 0c172.51,0 312.09,-139.58 312.09,-312.09l0 -665.8c0,-516.29 -419.99,-936.28 -936.27,-936.28z"/>
    </g>
   </g>
   <g>
    <g>
     <path class="fil1" d="M9177.25 10058.9l-3453.83 0 0 1248.38 2184.65 0c172.51,0 332.9,139.58 332.9,312.09 0,172.5 -160.39,312.09 -332.9,312.09l-2184.65 0 0 624.19 2829.64 0c172.51,0 312.09,139.59 312.09,312.09 0,172.5 -139.58,312.09 -312.09,312.09l-2829.64 0.01 0 624.18 3453.83 0c172.19,0 312.09,-139.9 312.09,-312.09l0.01 -3120.93c0,-172.2 -139.91,-312.1 -312.1,-312.1z"/>
    </g>
   </g>
   <g>
    <g>
     <path class="fil1" d="M12298.18 8186.34l-312.09 0 0 -624.19 -5014.3 0.01 0 624.19 -312.09 -0.01c-516.29,0 -936.28,419.99 -936.28,936.28l0 312.09 3453.83 0.01c516.28,0 936.28,419.99 936.28,936.27l0 3120.93c0,516.29 -420,936.28 -936.28,936.28l-3453.83 0.01 0 312.09c0,516.28 419.99,936.27 936.28,936.27l4398.08 0.01c-198.04,-261.62 -320.06,-583.66 -320.06,-936.28 0,-860.4 700.06,-1560.46 1560.46,-1560.46l936.28 0 0 -4057.22c0,-516.28 -419.99,-936.28 -936.28,-936.28z"/>
    </g>
   </g>
   <g>
    <g>
     <path class="fil1" d="M15439.92 13804.02l-1269.18 0 0 1872.56 1269.18 0c517.1,0 936.28,-419.18 936.28,-936.28 0,-517.09 -419.18,-936.28 -936.28,-936.28z"/>
    </g>
   </g>
   <g>
    <g>
     <path class="fil1" d="M12298.18 13804.02c-517.09,0 -936.27,419.18 -936.27,936.28 0,517.09 419.18,936.27 936.27,936.27l1248.38 0.01 0 -1872.56 -1248.38 0z"/>
    </g>
   </g>
   <g>
   </g>
   <g>
   </g>
   <g>
   </g>
   <g>
   </g>
   <g>
   </g>
   <g>
   </g>
   <g>
   </g>
   <g>
   </g>
   <g>
   </g>
   <g>
   </g>
   <g>
   </g>
   <g>
   </g>
   <g>
   </g>
   <g>
   </g>
   <g>
   </g>
  </g>
 </g>
</svg>
